<svg xmlns="http://www.w3.org/2000/svg" width="147.273" height="118.71" viewBox="0 0 147.273 118.71">
  <g id="co2" transform="translate(0.25 -0.25)">
    <path id="Path_54" data-name="Path 54" d="M221.932,112.574h-10.48a2.154,2.154,0,0,1,0-4.309h10.48A19.384,19.384,0,0,0,241.295,88.9V76.33a19.384,19.384,0,0,0-19.362-19.361,19.187,19.187,0,0,0-7.938,1.7,4.132,4.132,0,0,1-5.844-3.756V48.647a19.36,19.36,0,0,0-36.1-9.733,4.083,4.083,0,0,1-2.612,1.937,4.173,4.173,0,0,1-3.229-.569A19.358,19.358,0,0,0,142.2,42.574a2.154,2.154,0,1,1-2.993-3.1,23.668,23.668,0,0,1,29.222-2.891,23.668,23.668,0,0,1,44.033,12.064v5.992a23.459,23.459,0,0,1,9.475-1.978A23.7,23.7,0,0,1,245.6,76.33V88.9A23.7,23.7,0,0,1,221.932,112.574Zm0,0" transform="translate(-98.828 -17.46)" fill="#f39314" stroke="#f39314" stroke-width="0.5"/>
    <path id="Path_55" data-name="Path 55" d="M102.4,168.97H23.67A23.7,23.7,0,0,1,0,145.3v-5.291a23.7,23.7,0,0,1,23.67-23.67,23.441,23.441,0,0,1,9.475,1.979V112.9a23.637,23.637,0,0,1,1.174-7.381,2.154,2.154,0,0,1,4.094,1.343,19.331,19.331,0,0,0-.96,6.038v5.692a4.132,4.132,0,0,1-5.845,3.756,19.178,19.178,0,0,0-7.937-1.7A19.384,19.384,0,0,0,4.308,140.009V145.3A19.384,19.384,0,0,0,23.67,164.661H102.4a2.154,2.154,0,1,1,0,4.309Zm0,0" transform="translate(0 -73.856)" fill="#f39314" stroke="#f39314" stroke-width="0.5"/>
    <path id="Path_56" data-name="Path 56" d="M168.149,156.8c6.479,0,10.029,4.067,10.029,6.479a2.307,2.307,0,0,1-2.55,2.551c-3.274,0-2.31-4.48-7.479-4.48-3.551,0-6.48,3.067-6.48,8.444,0,4.515,1.793,8.443,6.686,8.443,4.447,0,4.343-4.756,7.066-4.756,1.378,0,2.757.793,2.757,2.171,0,3.584-4.343,7.134-9.823,7.134-7.755,0-12.339-4.447-12.339-12.994C156.016,162.8,160.152,156.8,168.149,156.8Zm0,0" transform="translate(-111.291 -111.494)" fill="#f39314" stroke="#f39314" stroke-width="0.5"/>
    <path id="Path_57" data-name="Path 57" d="M254.288,156.8c8.133,0,12.545,5.411,12.545,12.684,0,7-4.067,13.3-12.545,13.3-8.893,0-12.546-5.79-12.546-13.3C241.742,162.212,246.154,156.8,254.288,156.8Zm0,21.437c5.135,0,6.892-4,6.892-8.753s-2.274-8.134-6.892-8.134-6.893,3.377-6.893,8.134S248.979,178.238,254.288,178.238Zm0,0" transform="translate(-172.442 -111.494)" fill="#f39314" stroke="#f39314" stroke-width="0.5"/>
    <path id="Path_58" data-name="Path 58" d="M346.021,234.645a1.843,1.843,0,1,1,0,3.686h-8.949a1.8,1.8,0,0,1-1.864-1.821c0-1.361.329-2.063,4.365-4.87l2.084-1.448c1.075-.746,1.469-1.359,1.469-2.26a1.718,1.718,0,0,0-1.908-1.776c-2.5,0-1.206,3.048-3.685,3.048a1.9,1.9,0,0,1-2.149-2.128c0-2.105,2.062-4.343,5.966-4.343,4.672,0,6.3,2.544,6.3,4.979,0,1.843-.922,3.159-2.873,4.387l-3.971,2.5v.044Zm0,0" transform="translate(-239.114 -158.527)" fill="#f39314" stroke="#f39314" stroke-width="0.5"/>
    <path id="Path_59" data-name="Path 59" d="M406.513,14.644a7.072,7.072,0,1,1,7.073-7.072A7.08,7.08,0,0,1,406.513,14.644Zm0-9.836a2.764,2.764,0,1,0,2.765,2.765A2.768,2.768,0,0,0,406.513,4.808Zm0,0" transform="translate(-284.934 0)" fill="#f39314" stroke="#f39314" stroke-width="0.5"/>
    <path id="Path_60" data-name="Path 60" d="M90.518,385.82a5.433,5.433,0,1,1,5.433-5.433A5.438,5.438,0,0,1,90.518,385.82Zm0-6.558a1.125,1.125,0,1,0,1.125,1.124A1.126,1.126,0,0,0,90.518,379.262Zm0,0" transform="translate(-60.694 -267.109)" fill="#f39314" stroke="#f39314" stroke-width="0.5"/>
    <path id="Path_61" data-name="Path 61" d="M152.039,354.964a8.39,8.39,0,1,1,8.391-8.39A8.4,8.4,0,0,1,152.039,354.964Zm0-12.471a4.082,4.082,0,1,0,4.082,4.082A4.086,4.086,0,0,0,152.039,342.493Zm0,0" transform="translate(-102.469 -240.88)" fill="#f39314" stroke="#f39314" stroke-width="0.5"/>
  </g>
</svg>
