<svg xmlns="http://www.w3.org/2000/svg" width="120.868" height="120.868" viewBox="0 0 120.868 120.868">
  <g id="help" transform="translate(-0.001)">
    <g id="Group_36" data-name="Group 36" transform="translate(18.089 111.14)">
      <g id="Group_35" data-name="Group 35">
        <path id="Path_44" data-name="Path 44" d="M84.464,476.792l-3.554-5.006a2.361,2.361,0,1,0-3.85,2.733l3.554,5.006a2.361,2.361,0,1,0,3.85-2.733Z" transform="translate(-76.624 -470.791)" fill="#f39314"/>
      </g>
    </g>
    <g id="Group_38" data-name="Group 38" transform="translate(0.001 36.933)">
      <g id="Group_37" data-name="Group 37">
        <path id="Path_45" data-name="Path 45" d="M53.165,237.54,49.3,219.106a34.766,34.766,0,0,0-14.7-21.826l-8.258-5.553a8.307,8.307,0,0,0-10.53,1.075V164.356a7.9,7.9,0,0,0-12.849-6.164A7.865,7.865,0,0,0,0,164.356v36.6a22.867,22.867,0,0,0,4.243,13.307l4.21,5.93a2.361,2.361,0,1,0,3.85-2.733l-4.21-5.93a18.17,18.17,0,0,1-3.372-10.575v-36.6a3.181,3.181,0,1,1,6.363,0V193.4a16.494,16.494,0,0,0,4.254,11.075c.118.141.238.28.366.416,1.568,1.661,3.411,3.619,5.147,5.464l2.43,2.587.024.023c2.079,2.211,3.612,3.844,3.644,3.878a2.361,2.361,0,1,0,3.441-3.232c-.043-.046-2.806-2.988-5.962-6.343L19.018,201.5l-.04-.045a3.983,3.983,0,0,1,.077-5.221,3.569,3.569,0,0,1,4.647-.593L31.96,201.2a30.068,30.068,0,0,1,12.717,18.877l3.868,18.434a2.361,2.361,0,1,0,4.621-.97Z" transform="translate(-0.001 -156.451)" fill="#f39314"/>
      </g>
    </g>
    <g id="Group_40" data-name="Group 40" transform="translate(13.193 104.243)">
      <g id="Group_39" data-name="Group 39">
        <path id="Path_46" data-name="Path 46" d="M60.182,442.586l-.015-.021a2.361,2.361,0,0,0-3.843,2.742l.015.021a2.361,2.361,0,0,0,3.843-2.742Z" transform="translate(-55.884 -441.575)" fill="#f39314"/>
      </g>
    </g>
    <g id="Group_42" data-name="Group 42" transform="translate(67.654 36.934)">
      <g id="Group_41" data-name="Group 41">
        <path id="Path_47" data-name="Path 47" d="M336.838,158.195a7.9,7.9,0,0,0-12.849,6.164V192.8a8.307,8.307,0,0,0-10.53-1.075l-8.258,5.553a34.764,34.764,0,0,0-14.7,21.826l-3.868,18.434a2.361,2.361,0,1,0,4.621.969l3.868-18.434A30.068,30.068,0,0,1,307.836,201.2l8.258-5.553a3.569,3.569,0,0,1,4.647.593,3.984,3.984,0,0,1,.082,5.215l-.045.05-11.375,12.1a2.361,2.361,0,1,0,3.441,3.232c.032-.034,9.678-10.291,11.246-11.952.128-.135.249-.275.366-.416a16.5,16.5,0,0,0,4.254-11.075V164.358a3.181,3.181,0,1,1,6.363,0v36.6a18.17,18.17,0,0,1-3.372,10.575L313.867,236.66a2.361,2.361,0,1,0,3.85,2.733l17.835-25.124a22.867,22.867,0,0,0,4.243-13.308v-36.6A7.867,7.867,0,0,0,336.838,158.195Z" transform="translate(-286.58 -156.454)" fill="#f39314"/>
      </g>
    </g>
    <g id="Group_44" data-name="Group 44" transform="translate(22.047 12.748)">
      <g id="Group_43" data-name="Group 43">
        <path id="Path_48" data-name="Path 48" d="M161.677,86.5l-4.2-1v-.753A10.559,10.559,0,0,0,162,76.084v-5.46a10.557,10.557,0,0,0-17.421-8.03,13.784,13.784,0,0,0-25.547.019,10.557,10.557,0,0,0-17.443,8.011v5.46a10.559,10.559,0,0,0,4.52,8.657v.753l-4.2,1A11.059,11.059,0,0,0,93.39,97.288V101.7a2.361,2.361,0,0,0,2.361,2.361H106.6c-.017.286-.028.574-.028.864v8.489a2.361,2.361,0,0,0,2.361,2.361h14.19a2.361,2.361,0,0,0,0-4.721h-2.439v-4.878a2.361,2.361,0,1,0-4.721,0v4.879h-4.669v-6.128a9.774,9.774,0,0,1,7.52-9.535l6.478-1.552,4.335,9.863a2.361,2.361,0,0,0,2.161,1.411h0a2.361,2.361,0,0,0,2.161-1.411l4.331-9.849,6.458,1.543a9.773,9.773,0,0,1,7.527,9.537v6.121h-4.669v-4.879a2.361,2.361,0,0,0-4.721,0v4.879H140.2a2.361,2.361,0,0,0,0,4.721h14.426a2.361,2.361,0,0,0,2.361-2.361v-8.482c0-.292-.012-.582-.029-.871h10.879a2.361,2.361,0,0,0,2.361-2.361V97.289A11.059,11.059,0,0,0,161.677,86.5ZM151.432,64.779a5.852,5.852,0,0,1,5.831,5.459h-3.282a17.207,17.207,0,0,1-7.915-1.929A5.852,5.852,0,0,1,151.432,64.779Zm-5.844,10.96c0-.115.009-.229.009-.345v-2.1a21.929,21.929,0,0,0,8.385,1.668h3.295v1.124a5.844,5.844,0,1,1-11.688,0Zm-22.848-7.95h0a9.068,9.068,0,0,1,18.021-1.441l-3.974-2.335a2.36,2.36,0,0,0-3.005.519,10.171,10.171,0,0,1-7.814,3.647H122.74v-.39Zm-10.587-3.009a5.853,5.853,0,0,1,5.366,3.529,17.208,17.208,0,0,1-7.915,1.929h-3.282A5.852,5.852,0,0,1,112.153,64.779Zm-5.844,10.18H109.6A21.93,21.93,0,0,0,118,73.288v2.8a5.844,5.844,0,0,1-11.688,0V74.959Zm11.4,15.837a14.478,14.478,0,0,0-10.032,8.541H98.111V97.288a6.353,6.353,0,0,1,4.893-6.2l6.012-1.436a2.361,2.361,0,0,0,1.812-2.3v-.794a10.247,10.247,0,0,0,2.639,0v.674c0,.035,0,.07,0,.106a2.364,2.364,0,0,0,1.918,2.323l3.521.844Zm6.585-3.665a11.076,11.076,0,0,0-1.89-.637l-4.217-1.011v-.736a10.652,10.652,0,0,0,2.046-1.869,13.9,13.9,0,0,0,4.061,4.071ZM134.549,90.6l-2.762,6.283-2.769-6.3V88.9a13.835,13.835,0,0,0,5.531.009Zm-2.742-6.139a9.077,9.077,0,0,1-9.067-9.067V72.9h3.227A14.874,14.874,0,0,0,136,69.025l4.868,2.86v3.854A9.077,9.077,0,0,1,131.807,84.461Zm7.464,2.678v-.16a13.893,13.893,0,0,0,4.1-4.081,10.649,10.649,0,0,0,2.029,1.849v.736l-4.217,1.011A11.116,11.116,0,0,0,139.271,87.139Zm26.2,12.2h-9.6A14.475,14.475,0,0,0,145.833,90.8l-1.185-.283,3.54-.848a2.363,2.363,0,0,0,1.929-2.325c0-.018,0-.037,0-.055v-.724a10.248,10.248,0,0,0,2.639,0v.794a2.361,2.361,0,0,0,1.812,2.3l6.012,1.436a6.353,6.353,0,0,1,4.893,6.2v2.048Z" transform="translate(-93.39 -54)" fill="#f39314"/>
      </g>
    </g>
    <g id="Group_46" data-name="Group 46" transform="translate(58.074 69.799)">
      <g id="Group_45" data-name="Group 45">
        <path id="Path_49" data-name="Path 49" d="M250.029,296.359a2.362,2.362,0,1,0,.692,1.671A2.379,2.379,0,0,0,250.029,296.359Z" transform="translate(-246 -295.67)" fill="#f39314"/>
      </g>
    </g>
    <g id="Group_48" data-name="Group 48" transform="translate(58.072)">
      <g id="Group_47" data-name="Group 47">
        <path id="Path_50" data-name="Path 50" d="M248.354,0a2.361,2.361,0,0,0-2.361,2.361V5.893a2.361,2.361,0,1,0,4.721,0V2.361A2.361,2.361,0,0,0,248.354,0Z" transform="translate(-245.993)" fill="#f39314"/>
      </g>
    </g>
    <g id="Group_50" data-name="Group 50" transform="translate(45.232 4.536)">
      <g id="Group_49" data-name="Group 49">
        <path id="Path_51" data-name="Path 51" d="M198.1,22.378,195.629,19.9a2.361,2.361,0,1,0-3.337,3.34l2.477,2.474a2.361,2.361,0,1,0,3.337-3.34Z" transform="translate(-191.599 -19.213)" fill="#f39314"/>
      </g>
    </g>
    <g id="Group_52" data-name="Group 52" transform="translate(68.401 4.596)">
      <g id="Group_51" data-name="Group 51">
        <path id="Path_52" data-name="Path 52" d="M296.232,20.16a2.361,2.361,0,0,0-3.338,0l-2.457,2.46a2.361,2.361,0,1,0,3.34,3.337l2.457-2.46A2.361,2.361,0,0,0,296.232,20.16Z" transform="translate(-289.746 -19.469)" fill="#f39314"/>
      </g>
    </g>
  </g>
</svg>
