<svg xmlns="http://www.w3.org/2000/svg" width="39.619" height="42.75" viewBox="0 0 39.619 42.75">
  <g id="pdf" transform="translate(-18.696 0.5)">
    <path id="Path_66" data-name="Path 66" d="M57.815,16.168A9.886,9.886,0,0,0,54.9,9.131L48.684,2.914A9.886,9.886,0,0,0,41.648,0H30.433a.612.612,0,1,0,0,1.223h9.839A4.638,4.638,0,0,1,44.9,5.856V9.048a3.868,3.868,0,0,0,3.863,3.863H51.96a4.638,4.638,0,0,1,4.632,4.617V37.886a2.643,2.643,0,0,1-2.64,2.64H27.239a2.63,2.63,0,0,1-2.551-1.96l-.026-3.772H44.5a4.888,4.888,0,0,0,4.883-4.883V28.59a.612.612,0,0,0-1.223,0v1.322a3.664,3.664,0,0,1-3.66,3.66H22.573a2.157,2.157,0,0,1-2.154-2.154V18.18a3.362,3.362,0,0,0,2.154.778H44.5a3.664,3.664,0,0,1,3.66,3.66v3.525a.612.612,0,0,0,1.223,0V22.618A4.888,4.888,0,0,0,44.5,17.735H24.6V3.863a2.643,2.643,0,0,1,2.64-2.64h.748a.612.612,0,1,0,0-1.223h-.748a3.867,3.867,0,0,0-3.863,3.864V12.2h-.8A3.381,3.381,0,0,0,19.2,15.581V31.417a3.381,3.381,0,0,0,3.377,3.377h.865l.027,3.854a.614.614,0,0,0,.017.138,3.849,3.849,0,0,0,3.757,2.963H53.952a3.867,3.867,0,0,0,3.863-3.864ZM22.573,13.427h.8v4.309h-.8a2.154,2.154,0,0,1,0-4.309ZM51.96,11.688H48.768a2.643,2.643,0,0,1-2.64-2.64V5.856a5.839,5.839,0,0,0-1.793-4.213,8.688,8.688,0,0,1,3.484,2.137L54.036,10a8.687,8.687,0,0,1,2.137,3.484,5.839,5.839,0,0,0-4.213-1.793Z" fill="gray" stroke="gray" stroke-width="1"/>
    <path id="Path_67" data-name="Path 67" d="M278.852,268a.612.612,0,0,0,0-1.223H275.7a.612.612,0,0,0-.612.612v7.78a.612.612,0,0,0,1.223,0v-3.352H278.6a.612.612,0,0,0,0-1.223H276.31V268Z" transform="translate(-235.025 -245.02)" fill="gray" stroke="gray" stroke-width="1"/>
    <path id="Path_68" data-name="Path 68" d="M177.358,266.773a.612.612,0,0,0-.612.613v.007h0v7.645a.649.649,0,0,0,.627.738h0c.066,0,1.635-.006,2.26-.017a3.447,3.447,0,0,0,2.721-1.384,5.106,5.106,0,0,0,.957-3.1c0-2.692-1.508-4.5-3.753-4.5h-2.2Zm4.733,4.5c0,1.895-1.018,3.236-2.476,3.261-.372.007-1.1.011-1.632.014,0-.892-.008-2.526-.008-3.284,0-.634,0-2.345,0-3.27h1.591C180.784,268,182.091,268.857,182.091,271.274Z" transform="translate(-144.703 -245.02)" fill="gray" stroke="gray" stroke-width="1"/>
    <path id="Path_69" data-name="Path 69" d="M95.693,266.069a.611.611,0,0,0-.611.61h0v7.837a.612.612,0,0,0,1.223,0v-2.8c.508,0,1.211-.006,1.571-.006a2.824,2.824,0,1,0,0-5.646H95.693Zm3.825,2.823a1.644,1.644,0,0,1-1.643,1.6c-.357,0-1.051,0-1.559.006,0-.521-.006-1.242-.006-1.606,0-.307,0-1.058,0-1.6h1.569A1.644,1.644,0,0,1,99.518,268.892Z" transform="translate(-69.697 -244.373)" fill="gray" stroke="gray" stroke-width="1"/>
  </g>
</svg>
