<svg id="school" xmlns="http://www.w3.org/2000/svg" width="120.868" height="120.868" viewBox="0 0 120.868 120.868">
  <g id="Group_55" data-name="Group 55" transform="translate(0 0)">
    <g id="Group_54" data-name="Group 54" transform="translate(0 0)">
      <path id="Path_62" data-name="Path 62" d="M118.855,0H2.014A2.014,2.014,0,0,0,0,2.013H0V42.3H4.029V4.029h112.81V48.347H46.333v4.029h72.521a2.014,2.014,0,0,0,2.014-2.013h0V2.014A2.014,2.014,0,0,0,118.855,0Z" transform="translate(0 0)" fill="#f39314"/>
    </g>
  </g>
  <g id="Group_57" data-name="Group 57" transform="translate(66.283 9.747)">
    <g id="Group_56" data-name="Group 56" transform="translate(0 0)">
      <rect id="Rectangle_91" data-name="Rectangle 91" width="40" height="5" transform="translate(-0.283 0.253)" fill="#f39314"/>
    </g>
  </g>
  <g id="Group_59" data-name="Group 59" transform="translate(73.106 22.419)">
    <g id="Group_58" data-name="Group 58" transform="translate(0 0)">
      <rect id="Rectangle_92" data-name="Rectangle 92" width="40" height="3" transform="translate(-0.106 -0.419)" fill="#f39314"/>
    </g>
  </g>
  <g id="Group_61" data-name="Group 61" transform="translate(64.333 35.091)">
    <g id="Group_60" data-name="Group 60" transform="translate(0 0)">
      <rect id="Rectangle_93" data-name="Rectangle 93" width="40" height="4" transform="translate(-0.333 -0.091)" fill="#f39314"/>
    </g>
  </g>
  <g id="Group_63" data-name="Group 63" transform="translate(0 8.058)">
    <g id="Group_62" data-name="Group 62" transform="translate(0)">
      <path id="Path_63" data-name="Path 63" d="M64.3,41.31a6.5,6.5,0,0,0-8.5-3.505c-.057.024-.113.048-.169.073L39.3,46.352a9.961,9.961,0,0,0,.99-4.279,10.073,10.073,0,1,0-18.079,6.043h-.084A13.824,13.824,0,0,0,9.286,57.059L3.908,75.594a6.452,6.452,0,1,0,12.116,4.438l2.107-6.7v29.155a10.042,10.042,0,0,0-13.072,15.2A9.28,9.28,0,0,0,0,125.915V142.8a2.014,2.014,0,0,0,2.013,2.014H22.159a2.014,2.014,0,0,0,2.014-2.013h0V125.915a9.259,9.259,0,0,0-3.595-7.293H35.827a9.258,9.258,0,0,0-3.595,7.293V142.8a2.014,2.014,0,0,0,2.013,2.014H54.391a2.014,2.014,0,0,0,2.014-2.013h0V125.915a9.28,9.28,0,0,0-5.058-8.232A10.064,10.064,0,0,0,42.3,100.621V59.412l18.493-9.6A6.5,6.5,0,0,0,64.3,41.31ZM30.217,36.029a6.043,6.043,0,1,1-6.043,6.043A6.043,6.043,0,0,1,30.217,36.029Zm-18.13,68.417a6.043,6.043,0,1,1-6.043,6.043A6.043,6.043,0,0,1,12.087,104.446Zm8.058,36.335H4.029V125.915a5.285,5.285,0,0,1,5.279-5.278h5.557a5.286,5.286,0,0,1,5.279,5.278Zm32.232-14.867v14.867H36.26V125.915a5.285,5.285,0,0,1,5.279-5.278H47.1A5.285,5.285,0,0,1,52.376,125.915Zm-8.058-21.469a6.043,6.043,0,1,1-6.043,6.043A6.05,6.05,0,0,1,44.318,104.446Zm16.3-59.775A2.591,2.591,0,0,1,59.1,46.162L39.362,56.4a2.015,2.015,0,0,0-1.087,1.788v44.3a9.937,9.937,0,0,0-3.135,12.11H32.232V80.347H28.2v34.246H21.265a9.979,9.979,0,0,0,.887-4.029h.008V60.2a2.014,2.014,0,0,0-3.936-.6L12.208,78.74a2.422,2.422,0,0,1-3.36,1.34,2.473,2.473,0,0,1-1.125-3.2L13.1,58.345a9.733,9.733,0,0,1,9.027-6.2H36.39a2.007,2.007,0,0,0,.928-.226L57.34,41.526A2.48,2.48,0,0,1,60.51,42.7,2.451,2.451,0,0,1,60.616,44.671Z" transform="translate(0 -32)" fill="#f39314"/>
    </g>
  </g>
  <g id="Group_65" data-name="Group 65" transform="translate(64.463 76.454)">
    <g id="Group_64" data-name="Group 64">
      <path id="Path_64" data-name="Path 64" d="M275.116,320.905a10.072,10.072,0,1,0-14.243-.186q.092.094.186.186A9.281,9.281,0,0,0,256,329.137v16.881a2.014,2.014,0,0,0,2.013,2.014h20.146a2.014,2.014,0,0,0,2.014-2.013h0V329.137A9.28,9.28,0,0,0,275.116,320.905Zm-7.029-13.237a6.043,6.043,0,1,1-6.043,6.043A6.043,6.043,0,0,1,268.087,307.669ZM276.145,344H260.029V329.137a5.285,5.285,0,0,1,5.279-5.278h5.557a5.286,5.286,0,0,1,5.279,5.278Z" transform="translate(-256 -303.618)" fill="#f39314"/>
    </g>
  </g>
  <g id="Group_67" data-name="Group 67" transform="translate(96.695 76.454)">
    <g id="Group_66" data-name="Group 66">
      <path id="Path_65" data-name="Path 65" d="M403.116,320.905a10.072,10.072,0,1,0-14.243-.186q.092.094.186.186A9.281,9.281,0,0,0,384,329.137v16.881a2.014,2.014,0,0,0,2.013,2.014h20.146a2.014,2.014,0,0,0,2.015-2.013h0V329.137A9.281,9.281,0,0,0,403.116,320.905Zm-7.029-13.237a6.043,6.043,0,1,1-6.043,6.043A6.043,6.043,0,0,1,396.087,307.669ZM404.145,344H388.029V329.137a5.285,5.285,0,0,1,5.279-5.278h5.557a5.286,5.286,0,0,1,5.279,5.278Z" transform="translate(-384 -303.618)" fill="#f39314"/>
    </g>
  </g>
</svg>
