<svg xmlns="http://www.w3.org/2000/svg" width="129.047" height="120.868" viewBox="0 0 129.047 120.868">
  <g id="user_1_" data-name="user (1)" transform="translate(0 -16.224)">
    <g id="Group_53" data-name="Group 53" transform="translate(0 16.224)">
      <path id="Path_53" data-name="Path 53" d="M127.156,118.472a1.89,1.89,0,0,0-1.89,1.89v12.631a.319.319,0,0,1-.318.318h-7.183V105.693a1.89,1.89,0,0,0-3.781,0v27.618H100.1l3.757-4.133a3.023,3.023,0,0,0,.732-2.425c0-.019-.006-.038-.009-.056l-4.223-24.951.777-1.17.2.144a2.959,2.959,0,0,0,4.361-1.091h0l4.3-8.613,9.816,3.8a9.409,9.409,0,0,1,5.45,8.53v8.192a1.89,1.89,0,1,0,3.781,0v-8.192a13.182,13.182,0,0,0-7.8-12.03l-.036-.014L104.495,84.83V81.387a13.8,13.8,0,0,0,4.992-8.573A6.6,6.6,0,0,0,113,71.268a6.509,6.509,0,0,0,.793-9.05v-5.1A18.089,18.089,0,0,0,83.937,43.362a6.5,6.5,0,0,0-1.463-3.934v-5.1a18.1,18.1,0,1,0-36.207,0v5.234a6.166,6.166,0,0,0-1.462,3.784,18.022,18.022,0,0,0-7.13-3.734,1.891,1.891,0,1,0-.963,3.656,14.327,14.327,0,0,1,10.665,13.85v2.827c-.082-.017-.344-.062-.354-.064a2.177,2.177,0,0,0-.452-1.278c-.484-.7-1.353-1.562-4.148-4.566a2.988,2.988,0,0,0-3.83-.467,27.012,27.012,0,0,1-16,4.4,3.021,3.021,0,0,0-3.324,1.935c-.042.007-.509.1-.535.107v-2.9A14.414,14.414,0,0,1,28.917,43.4a1.89,1.89,0,1,0-1.091-3.62,18.248,18.248,0,0,0-9.23,6.439,17.94,17.94,0,0,0-3.646,10.895v5.234a6.16,6.16,0,0,0-1.467,3.985,6.527,6.527,0,0,0,5.781,6.48,13.963,13.963,0,0,0,5.268,8.794v3.221L7.837,91.3l-.036.014A13.179,13.179,0,0,0,0,103.348v29.645a4.1,4.1,0,0,0,4.1,4.1H62.314a4.073,4.073,0,0,0,2.209-.652,4.071,4.071,0,0,0,2.209.652h58.215a4.1,4.1,0,0,0,4.1-4.1V120.362A1.891,1.891,0,0,0,127.156,118.472ZM19.08,68.91a2.729,2.729,0,0,1-1.816-2.574,2.792,2.792,0,0,1,1.816-2.46Zm87.378,20.735-3.711,7.437-4.18-2.969,4.64-5.727ZM95.834,91.479l-4.889-6.035V83.631a15.245,15.245,0,0,0,4.912.8h0a13.976,13.976,0,0,0,4.855-.882v1.9Zm2.22,6.907-.7,1.047H94.311l-.7-1.047,2.219-1.576Zm-33.536-29.7-4.889-6.035V60.84a15.244,15.244,0,0,0,4.912.8h0a13.973,13.973,0,0,0,4.855-.882v1.9ZM66.738,75.6l-.7,1.047H62.995L62.3,75.6l2.219-1.576ZM49.632,49.844a6.761,6.761,0,0,0,.949.181,13.963,13.963,0,0,0,5.268,8.794v3.221l-3.857,1.495a6.479,6.479,0,0,0-.835-1.317v-5.1A18.059,18.059,0,0,0,49.632,49.844Zm24.932-2a10.194,10.194,0,0,1-20.386,0V38.988A30.956,30.956,0,0,0,71.418,34.3c1.7,1.828,2.719,2.89,3.146,3.383C74.564,42.391,74.564,44.208,74.564,47.842Zm3.607,2.182a6.8,6.8,0,0,0,.944-.182,17.994,17.994,0,0,0-1.531,7.275v5.234a6.451,6.451,0,0,0-.748,1.1L73.179,62.04V58.6A13.806,13.806,0,0,0,78.171,50.024ZM57.14,65.6l4.641,5.728-3.165,2.248,0,0-1,.714L53.9,66.855Zm11.73,3.726L71.89,65.6l3.251,1.259-3.71,7.437-1.007-.715,0,0-3.17-2.252Zm.953,8.461.2.144a2.959,2.959,0,0,0,4.361-1.091h0l3.19-6.394a6.636,6.636,0,0,0,4.314,2.377,13.742,13.742,0,0,0,5.275,8.789v3.221L71.094,91.062,69.045,78.956Zm18.634,10.6L93.1,94.116l-4.174,2.965-3.711-7.437Zm17.424-17.756a10.194,10.194,0,0,1-20.386,0V61.778a30.971,30.971,0,0,0,17.24-4.686c1.7,1.828,2.719,2.89,3.146,3.383C105.879,65.181,105.879,67,105.879,70.633Zm5.6-4.3a2.729,2.729,0,0,1-1.816,2.574V63.767A2.724,2.724,0,0,1,111.477,66.336ZM81.364,57.117a14.322,14.322,0,1,1,28.645,0v2.827c-.086-.018-.322-.059-.354-.064A2.178,2.178,0,0,0,109.2,58.6c-.5-.714-1.356-1.565-4.148-4.566a2.991,2.991,0,0,0-3.83-.467,27.063,27.063,0,0,1-16.142,4.4A2.973,2.973,0,0,0,81.9,59.91c-.042.007-.509.1-.535.107v-2.9Zm.349,6.759v5.031A2.723,2.723,0,0,1,79.9,66.336,2.79,2.79,0,0,1,81.713,63.876Zm-1.552-20.33a2.72,2.72,0,0,1-.945,2.065,2.8,2.8,0,0,1-.871.508V40.977A2.725,2.725,0,0,1,80.161,43.546ZM64.37,20A14.339,14.339,0,0,1,78.693,34.327v2.827c-.085-.018-.322-.059-.354-.064a2.29,2.29,0,0,0-.535-1.4c-.506-.685-1.439-1.627-4.064-4.449a2.989,2.989,0,0,0-3.83-.467,27,27,0,0,1-16.295,4.39,3,3,0,0,0-3.031,1.95c-.042.007-.509.1-.535.107v-2.9h0A14.339,14.339,0,0,1,64.37,20ZM50.4,41.086V46.12a2.729,2.729,0,0,1-1.816-2.574A2.793,2.793,0,0,1,50.4,41.086ZM47.028,63.767a2.73,2.73,0,0,1,0,5.14Zm-.175,9.053a6.629,6.629,0,0,0,4.493-2.608l3.306,6.626h0a2.959,2.959,0,0,0,4.361,1.091l.2-.144.777,1.17-2.048,12.1L41.863,84.83V81.388h0A13.818,13.818,0,0,0,46.853,72.82ZM33.2,91.479l-4.889-6.035V83.631a15.238,15.238,0,0,0,4.913.8h0a13.969,13.969,0,0,0,4.855-.882v1.9Zm2.219,6.907-.7,1.047H31.678l-.7-1.047L33.2,96.81Zm5.153-10,3.251,1.259-3.711,7.437-1.007-.715,0,0-3.17-2.252ZM22.861,70.633V61.778A30.984,30.984,0,0,0,40.1,57.092c1.688,1.811,2.718,2.889,3.146,3.383V70.633a10.194,10.194,0,0,1-20.386,0Zm2.962,17.756,4.641,5.728L27.3,96.364l0,0-1,.714-3.711-7.437Zm-10.76,44.923V105.693a1.89,1.89,0,1,0-3.781,0v27.618H4.1a.319.319,0,0,1-.319-.318V103.348a9.409,9.409,0,0,1,5.447-8.529l9.81-3.8,4.3,8.613h0A2.959,2.959,0,0,0,27.7,100.72l.2-.144.777,1.17L24.453,126.7c0,.019-.006.038-.009.056a3.026,3.026,0,0,0,.732,2.426l3.756,4.132H15.063Zm13.184-6.376,4.015-23.723h1.88l4.015,23.723L33.2,132.387Zm34.385,6.057a.319.319,0,0,1-.318.319H55.132V105.693a1.89,1.89,0,0,0-3.781,0v27.618H37.471l3.757-4.133a3.023,3.023,0,0,0,.732-2.425c0-.019-.006-.038-.009-.056l-4.223-24.951.777-1.17.2.144a2.959,2.959,0,0,0,4.361-1.091h0l4.3-8.612,9.816,3.8a9.388,9.388,0,0,1,5.45,8.53v29.645Zm1.891-36.514a13.46,13.46,0,0,0-3.082-3.426l2.138-12.63h1.88L67.6,93.06A13.47,13.47,0,0,0,64.523,96.479ZM77.7,133.312h0V105.693a1.89,1.89,0,0,0-3.781,0v27.618H66.732a.319.319,0,0,1-.319-.318V103.348a9.036,9.036,0,0,1,2.206-6.056,10.176,10.176,0,0,1,3.241-2.473l9.81-3.8,4.3,8.613h0a2.959,2.959,0,0,0,4.361,1.091l.2-.144.777,1.17L87.086,126.7c0,.019-.006.038-.009.056a3.026,3.026,0,0,0,.732,2.426l3.756,4.132H77.7Zm13.184-6.376,4.015-23.723h1.88l4.015,23.723-4.955,5.451Z" transform="translate(0 -16.224)" fill="#f39314"/>
    </g>
  </g>
</svg>
