<svg id="water" xmlns="http://www.w3.org/2000/svg" width="128.718" height="128.718" viewBox="0 0 128.718 128.718">
  <g id="Group_24" data-name="Group 24" transform="translate(0 77.747)">
    <g id="Group_23" data-name="Group 23">
      <path id="Path_38" data-name="Path 38" d="M128.463,317.434a8.574,8.574,0,0,0-11.706-5.822,2.5,2.5,0,0,0-.527-.313l-1.624-.705a16.186,16.186,0,0,0-16.3,2L79.272,327.2a8.8,8.8,0,0,0-3.193-2.461l-17.788-8.049A30.951,30.951,0,0,0,37.574,315l-15.5,4.152v-1.665a2.514,2.514,0,0,0-2.514-2.514H2.514A2.514,2.514,0,0,0,0,317.487v40.224a2.514,2.514,0,0,0,2.514,2.514H73.622a34.008,34.008,0,0,0,22.3-8.333l9.5-8.253a2.514,2.514,0,0,0-3.3-3.8l-9.5,8.253a28.981,28.981,0,0,1-19,7.1H22.076v-30.84l16.8-4.5a25.912,25.912,0,0,1,17.343,1.418l17.788,8.049a3.774,3.774,0,0,1,1.661,5.412,3.793,3.793,0,0,1-4.2,1.668L49.115,330.34a2.514,2.514,0,1,0-1.317,4.853l22.346,6.064a8.681,8.681,0,0,0,2.278.3c.074,0,.148-.005.222-.007s.158.012.239.012h6.33a23.61,23.61,0,0,0,14.941-5.346l23.722-19.469a3.572,3.572,0,0,1,3.064-.714,3.555,3.555,0,0,1,1.523,6.145l-6.658,5.782a2.514,2.514,0,0,0,3.3,3.8l6.658-5.783A8.547,8.547,0,0,0,128.463,317.434ZM17.048,355.2H5.028V320h12.02Zm73.917-22.865a18.573,18.573,0,0,1-10.544,4.16,8.807,8.807,0,0,0,.8-4.447l20.149-15.459A11.154,11.154,0,0,1,112.083,315Z" transform="translate(0 -309.255)" fill="#f39314"/>
    </g>
  </g>
  <g id="Group_26" data-name="Group 26" transform="translate(107.857 101.991)">
    <g id="Group_25" data-name="Group 25">
      <path id="Path_39" data-name="Path 39" d="M433.311,406.426a2.512,2.512,0,1,0,.737,1.777A2.528,2.528,0,0,0,433.311,406.426Z" transform="translate(-429.02 -405.689)" fill="#f39314"/>
    </g>
  </g>
  <g id="Group_28" data-name="Group 28" transform="translate(8.523 93.735)">
    <g id="Group_27" data-name="Group 27">
      <path id="Path_40" data-name="Path 40" d="M38.194,373.587a2.512,2.512,0,1,0,.737,1.777A2.538,2.538,0,0,0,38.194,373.587Z" transform="translate(-33.9 -372.85)" fill="#f39314"/>
    </g>
  </g>
  <g id="Group_30" data-name="Group 30" transform="translate(34.191)">
    <g id="Group_29" data-name="Group 29">
      <path id="Path_41" data-name="Path 41" d="M189.616,28.406l-.02-.026L168.148.965A2.513,2.513,0,0,0,166.169,0h0a2.515,2.515,0,0,0-1.98.964L142.843,28.236c-.04.051-.078.1-.113.157a30.169,30.169,0,1,0,46.887.012Zm-23.448,44A25.049,25.049,0,0,1,146.775,31.39a2.544,2.544,0,0,0,.19-.261l19.2-24.535,19.416,24.819q.04.055.084.108a25.048,25.048,0,0,1-19.5,40.883Z" transform="translate(-136)" fill="#f39314"/>
    </g>
  </g>
  <g id="Group_32" data-name="Group 32" transform="translate(71.307 44.825)">
    <g id="Group_31" data-name="Group 31">
      <path id="Path_42" data-name="Path 42" d="M293.754,178.3a2.514,2.514,0,0,0-2.514,2.514,14.482,14.482,0,0,1-6.483,12.074,2.514,2.514,0,1,0,2.786,4.186,19.5,19.5,0,0,0,8.725-16.259A2.514,2.514,0,0,0,293.754,178.3Z" transform="translate(-283.636 -178.301)" fill="#f39314"/>
    </g>
  </g>
  <g id="Group_34" data-name="Group 34" transform="translate(61.845 61.843)">
    <g id="Group_33" data-name="Group 33">
      <path id="Path_43" data-name="Path 43" d="M248.729,245.992l-.215,0a2.514,2.514,0,1,0,0,5.028l.288,0a2.514,2.514,0,0,0-.074-5.028Z" transform="translate(-246 -245.992)" fill="#f39314"/>
    </g>
  </g>
</svg>
